# xmcd
#
# Track frame offsets:
#	150
#	15242
#	31527
#	49292
#	64947
#	77615
#	88915
#	100852
#	114212
#	131722
#	144650
#	160592
#	176280
#	192330
#	204147
#	218155
#
# Disc length: 3028 seconds
#
# Revision: 0
# Processed by: cddbd v1.5.2PL0 Copyright (c) Steve Scherf et al.
# Submitted via: dBpowerAMP V4.0
#
DISCID=c80bd210
DTITLE=Floyd Jones - Eddie Taylor - Masters of Modern Blues
DYEAR=1967
DGENRE=Blues
TTITLE0=Rising Wind
TTITLE1=Dark Road
TTITLE2=Stockyard Blues
TTITLE3=Sweet Talkin' Woman
TTITLE4=Train Fare Home
TTITLE5=Big Town Playboy
TTITLE6=Peach Tree Blues
TTITLE7=Bad Boy
TTITLE8=Hard Times
TTITLE9=M&O Blues
TTITLE10=Playhouse Blues
TTITLE11=Dark Road
TTITLE12=Feel So Bad
TTITLE13=After Hours
TTITLE14=Take Your Hand Down
TTITLE15=Bad Boy
EXTD=
EXTT0=
EXTT1=
EXTT2=
EXTT3=
EXTT4=
EXTT5=
EXTT6=
EXTT7=
EXTT8=
EXTT9=
EXTT10=
EXTT11=
EXTT12=
EXTT13=
EXTT14=
EXTT15=
PLAYORDER=
